<svg xmlns="http://www.w3.org/2000/svg" xmlns:xlink="http://www.w3.org/1999/xlink" width="800" height="600"><defs><clipPath id="clip-path" clipPathUnits="objectBoundingBox"><use fill="none" xlink:href="#filterPath"/></clipPath><path id="filterPath" d="M0.0814,0.6292l0.0883-0.4105a0.3491,0.2598,0,0,1,0.2461-0.2081h0A0.349,0.2597,0,0,1,0.8597,0.2225l0.087,0.4468a0.3491,0.2597,0,0,1-0.2018,0.2739L0.6442,0.977a0.3489,0.2596,0,0,1-0.4175-0.0757L0.1521,0.8312A0.3492,0.2599,0,0,1,0.0814,0.6292Z"/></defs><svg preserveAspectRatio="none" viewBox="68.394 35.054 176.372 211.699"><path fill="none" stroke="#7C6576" stroke-miterlimit="10" stroke-width="7" d="M183.21,72.46C294.62,227.17,225,264.54,146.75,232.89c-31.16-12.62-32.39-28-56.92-68.26C33,71.32,124.18-9.51,183.21,72.46Z" class="background"/></svg><svg id="preview" preserveAspectRatio="none" viewBox="0 0 1 1"><use fill="#a9a9a9" xlink:href="#filterPath"/></svg><image clip-path="url(#clip-path)"><animateMotion dur="1ms" repeatCount="indefinite"/></image></svg>