<svg xmlns="http://www.w3.org/2000/svg" xmlns:xlink="http://www.w3.org/1999/xlink" viewBox="0 0 1440 450"><style>@keyframes snake{0%{transform:translate(0,0)}50%{transform:translate(-10%,0)}}@keyframes rotate{0%{transform:rotate(0deg)}}@keyframes rotate_reverse{0%{transform:rotate(0deg)}}@keyframes rotate_little{0%{transform:rotate(0deg)}50%{transform:rotate(45deg)}}.origin-center{transform-box:fill-box;transform-origin:center}#snake{animation:snake 30s cubic-bezier(.445,.05,.55,.95) infinite}#circle_1{animation:rotate 180s linear infinite}#circle_2,#circle_4{animation:rotate 60s linear infinite}#circle_3{animation:rotate_reverse 60s linear infinite}#circle_5{animation:rotate_little 30s cubic-bezier(.445,.05,.55,.95) infinite}</style><defs><g id="animations"><animateTransform attributeName="transform" attributeType="XML" dur="5s" repeatCount="indefinite" type="translate" values="0 0;0 10;0 0" xlink:href="#line_circles_1"/><animateTransform attributeName="transform" attributeType="XML" begin=".2s" dur="5s" repeatCount="indefinite" type="translate" values="0 0;0 10;0 0" xlink:href="#line_circles_2"/><animateTransform attributeName="transform" attributeType="XML" begin=".4s" dur="5s" repeatCount="indefinite" type="translate" values="0 0;0 10;0 0" xlink:href="#line_circles_3"/><animateTransform attributeName="transform" attributeType="XML" begin=".6s" dur="5s" repeatCount="indefinite" type="translate" values="0 0;0 10;0 0" xlink:href="#line_circles_4"/><animateTransform attributeName="transform" attributeType="XML" begin=".8s" dur="5s" repeatCount="indefinite" type="translate" values="0 0;0 10;0 0" xlink:href="#line_circles_5"/><animateTransform attributeName="transform" attributeType="XML" begin="1s" dur="5s" repeatCount="indefinite" type="translate" values="0 0;0 10;0 0" xlink:href="#line_circles_6"/><animateTransform attributeName="transform" attributeType="XML" begin="1.2s" dur="5s" repeatCount="indefinite" type="translate" values="0 0;0 10;0 0" xlink:href="#line_circles_7"/><animateTransform attributeName="transform" attributeType="XML" begin="1.4s" dur="5s" repeatCount="indefinite" type="translate" values="0 0;0 10;0 0" xlink:href="#line_circles_8"/><animateTransform attributeName="transform" attributeType="XML" begin="1.6s" dur="5s" repeatCount="indefinite" type="translate" values="0 0;0 10;0 0" xlink:href="#line_circles_9"/></g></defs><path id="snake" fill="none" stroke="#F6F6F6" stroke-linecap="round" stroke-miterlimit="10" stroke-width="68" d="M717,108.15c92.73,0,92.73,241.37,185.47,241.37s92.73-241.37,185.46-241.37,92.73,241.37,185.47,241.37,92.73-241.37,185.47-241.37,92.74,241.37,185.49,241.37,92.74-241.37,185.48-241.37"/><circle id="circle_1" cx="282.66" cy="219.53" r="170.18" fill="none" stroke="#F6F6F6" stroke-dasharray="5 36" stroke-linecap="round" stroke-miterlimit="10" stroke-width="11" class="origin-center"/><circle id="circle_2" cx="1254.38" cy="223" r="73.01" fill="none" stroke="#383E45" stroke-dasharray="5 14" stroke-linecap="round" stroke-miterlimit="10" stroke-width="3" class="origin-center"/><circle id="circle_3" cx="1254.38" cy="223" r="54.06" fill="none" stroke="#383E45" stroke-dasharray="5 14" stroke-linecap="round" stroke-miterlimit="10" stroke-width="3" class="origin-center"/><circle id="circle_4" cx="1254.38" cy="223" r="33.99" fill="none" stroke="#383E45" stroke-dasharray="5 14" stroke-linecap="round" stroke-miterlimit="10" stroke-width="3" class="origin-center"/><g id="line_circles_1"><circle cx="1144.47" cy="406.36" r="3.37" fill="#7C6576"/><circle cx="1144.47" cy="383.2" r="3.37" fill="#7C6576"/><circle cx="1144.47" cy="360.04" r="3.37" fill="#7C6576"/><circle cx="1144.47" cy="336.89" r="3.37" fill="#7C6576"/></g><g id="line_circles_2"><circle cx="1171.95" cy="406.36" r="3.37" fill="#7C6576"/><circle cx="1171.95" cy="383.2" r="3.37" fill="#7C6576"/><circle cx="1171.95" cy="360.04" r="3.37" fill="#7C6576"/><circle cx="1171.95" cy="336.89" r="3.37" fill="#7C6576"/></g><g id="line_circles_3"><circle cx="1199.43" cy="406.36" r="3.37" fill="#7C6576"/><circle cx="1199.43" cy="383.2" r="3.37" fill="#7C6576"/><circle cx="1199.43" cy="360.04" r="3.37" fill="#7C6576"/><circle cx="1199.43" cy="336.89" r="3.37" fill="#7C6576"/></g><g id="line_circles_4"><circle cx="1226.9" cy="406.36" r="3.37" fill="#7C6576"/><circle cx="1226.9" cy="383.2" r="3.37" fill="#7C6576"/><circle cx="1226.9" cy="360.04" r="3.37" fill="#7C6576"/><circle cx="1226.9" cy="336.89" r="3.37" fill="#7C6576"/></g><g id="line_circles_5"><circle cx="1254.38" cy="406.36" r="3.37" fill="#7C6576"/><circle cx="1254.38" cy="383.2" r="3.37" fill="#7C6576"/><circle cx="1254.38" cy="360.04" r="3.37" fill="#7C6576"/><circle cx="1254.38" cy="336.89" r="3.37" fill="#7C6576"/></g><g id="line_circles_6"><circle cx="1281.86" cy="406.36" r="3.37" fill="#7C6576"/><circle cx="1281.86" cy="383.2" r="3.37" fill="#7C6576"/><circle cx="1281.86" cy="360.04" r="3.37" fill="#7C6576"/><circle cx="1281.86" cy="336.89" r="3.37" fill="#7C6576"/></g><g id="line_circles_7"><circle cx="1309.34" cy="406.36" r="3.37" fill="#7C6576"/><circle cx="1309.34" cy="383.2" r="3.37" fill="#7C6576"/><circle cx="1309.34" cy="360.04" r="3.37" fill="#7C6576"/><circle cx="1309.34" cy="336.89" r="3.37" fill="#7C6576"/></g><g id="line_circles_8"><circle cx="1336.82" cy="406.36" r="3.37" fill="#7C6576"/><circle cx="1336.82" cy="383.2" r="3.37" fill="#7C6576"/><circle cx="1336.82" cy="360.04" r="3.37" fill="#7C6576"/><circle cx="1336.82" cy="336.89" r="3.37" fill="#7C6576"/></g><g id="line_circles_9"><circle cx="1364.29" cy="406.36" r="3.37" fill="#7C6576"/><circle cx="1364.29" cy="383.2" r="3.37" fill="#7C6576"/><circle cx="1364.29" cy="360.04" r="3.37" fill="#7C6576"/><circle cx="1364.29" cy="336.89" r="3.37" fill="#7C6576"/></g><circle id="circle_5" cx="188.47" cy="158.41" r="55.42" fill="#3AADAA" opacity=".5"/><circle cx="133.05" cy="102.99" r="74.45" fill="#3AADAA"/><g><circle cx="141.71" cy="109.65" r="4.53" fill="#F6F6F6"/><circle cx="160.78" cy="109.65" r="4.53" fill="#F6F6F6"/><circle cx="179.85" cy="109.65" r="4.53" fill="#F6F6F6"/><circle cx="198.92" cy="109.65" r="4.53" fill="#F6F6F6"/><circle cx="141.71" cy="128.72" r="4.53" fill="#F6F6F6"/><circle cx="160.78" cy="128.72" r="4.53" fill="#F6F6F6"/><circle cx="179.85" cy="128.72" r="4.53" fill="#F6F6F6"/><circle cx="198.92" cy="128.72" r="4.53" fill="#F6F6F6"/><circle cx="141.71" cy="147.79" r="4.53" fill="#F6F6F6"/><circle cx="160.78" cy="147.79" r="4.53" fill="#F6F6F6"/><circle cx="179.85" cy="147.79" r="4.53" fill="#F6F6F6"/><circle cx="198.92" cy="147.79" r="4.53" fill="#F6F6F6"/><circle cx="141.71" cy="166.86" r="4.53" fill="#F6F6F6"/><circle cx="160.78" cy="166.86" r="4.53" fill="#F6F6F6"/><circle cx="179.85" cy="166.86" r="4.53" fill="#F6F6F6"/><circle cx="198.92" cy="166.86" r="4.53" fill="#F6F6F6"/><circle cx="141.71" cy="185.93" r="4.53" fill="#F6F6F6"/><circle cx="160.78" cy="185.93" r="4.53" fill="#F6F6F6"/><circle cx="179.85" cy="185.93" r="4.53" fill="#F6F6F6"/><circle cx="198.92" cy="185.93" r="4.53" fill="#F6F6F6"/><circle cx="141.71" cy="205" r="4.53" fill="#F6F6F6"/><circle cx="160.78" cy="205" r="4.53" fill="#F6F6F6"/><circle cx="179.85" cy="205" r="4.53" fill="#F6F6F6"/><circle cx="198.92" cy="205" r="4.53" fill="#F6F6F6"/><circle cx="141.71" cy="224.07" r="4.53" fill="#F6F6F6"/><circle cx="160.78" cy="224.07" r="4.53" fill="#F6F6F6"/><circle cx="179.85" cy="224.07" r="4.53" fill="#F6F6F6"/><circle cx="198.92" cy="224.07" r="4.53" fill="#F6F6F6"/><circle cx="141.71" cy="243.14" r="4.53" fill="#F6F6F6"/><circle cx="160.78" cy="243.14" r="4.53" fill="#F6F6F6"/><circle cx="179.85" cy="243.14" r="4.53" fill="#F6F6F6"/><circle cx="198.92" cy="243.14" r="4.53" fill="#F6F6F6"/></g></svg>