<svg xmlns="http://www.w3.org/2000/svg" width="82" height="60" fill="none" viewBox="0 0 82 60"><circle cx="17.5" cy="20" r="3" fill="#01A19E"/><rect width="6" height="2" x="21.5" y="18" fill="#C6C5C5"/><rect width="8" height="1" x="21.5" y="21" fill="#858585"/><circle cx="36.5" cy="20" r="3" fill="#01A19E"/><rect width="6" height="2" x="40.5" y="18" fill="#C6C5C5"/><rect width="8" height="1" x="40.5" y="21" fill="#858585"/><circle cx="55.5" cy="20" r="3" fill="#01A19E"/><rect width="6" height="2" x="59.5" y="18" fill="#C6C5C5"/><rect width="8" height="1" x="59.5" y="21" fill="#858585"/><circle cx="17.5" cy="30" r="3" fill="#01A19E"/><rect width="6" height="2" x="21.5" y="28" fill="#C6C5C5"/><rect width="8" height="1" x="21.5" y="31" fill="#858585"/><circle cx="36.5" cy="30" r="3" fill="#01A19E"/><rect width="6" height="2" x="40.5" y="28" fill="#C6C5C5"/><rect width="8" height="1" x="40.5" y="31" fill="#858585"/><circle cx="55.5" cy="30" r="3" fill="#01A19E"/><rect width="6" height="2" x="59.5" y="28" fill="#C6C5C5"/><rect width="8" height="1" x="59.5" y="31" fill="#858585"/><circle cx="17.5" cy="40" r="3" fill="#01A19E"/><rect width="6" height="2" x="21.5" y="38" fill="#C6C5C5"/><rect width="8" height="1" x="21.5" y="41" fill="#858585"/><circle cx="36.5" cy="40" r="3" fill="#01A19E"/><rect width="6" height="2" x="40.5" y="38" fill="#C6C5C5"/><rect width="8" height="1" x="40.5" y="41" fill="#858585"/><circle cx="55.5" cy="40" r="3" fill="#01A19E"/><rect width="6" height="2" x="59.5" y="38" fill="#C6C5C5"/><rect width="8" height="1" x="59.5" y="41" fill="#858585"/></svg>